<svg xmlns="http://www.w3.org/2000/svg" viewBox="0 0 240 300" role="img" aria-labelledby="title desc">
  <title id="title">Adventure-Bible-Waschbär</title>
  <desc id="desc">Ein kleiner freundlicher Waschbär als Abenteuer-Bible-Begleiter, mit Umhang, Tasche und Wanderstab.</desc>
  <defs>
    <linearGradient id="fur" x1="0" y1="0" x2="0" y2="1">
      <stop offset="0" stop-color="#8a765e"/>
      <stop offset="1" stop-color="#5f5040"/>
    </linearGradient>
    <linearGradient id="cloak" x1="0" y1="0" x2="1" y2="1">
      <stop offset="0" stop-color="#3d6546"/>
      <stop offset="1" stop-color="#233e2c"/>
    </linearGradient>
  </defs>
  <ellipse cx="122" cy="282" rx="67" ry="10" fill="#d8c9b3" opacity=".55"/>
  <path d="M168 185c28 4 42 19 47 37 4 15-5 29-18 31-16 3-29-7-34-24-5-17-3-33 5-44z" fill="url(#fur)" stroke="#493d31" stroke-width="5"/>
  <path d="M184 199c13 2 22 9 25 19 3 10-1 17-9 19-10 3-18-5-22-15-4-11-2-18 6-23z" fill="#a58f73" opacity=".8"/>
  <path d="M75 182c-20 7-32 24-30 42 2 15 15 23 28 19 15-5 22-20 22-37 0-15-7-23-20-24z" fill="url(#fur)" stroke="#493d31" stroke-width="5"/>
  <path d="M72 194c-9 4-15 12-14 21 1 7 6 11 12 9 8-3 12-12 12-20 0-7-4-10-10-10z" fill="#a58f73" opacity=".8"/>
  <path d="M82 122c-7-29-3-57 17-72l13 26 22-29 17 31c25 11 36 35 31 65-5 31-28 50-57 49-28-1-45-23-43-70z" fill="url(#fur)" stroke="#493d31" stroke-width="6"/>
  <path d="M105 76c-8 17-10 36-4 53 8 22 26 32 46 31 21-1 35-13 41-31 6-18 3-36-7-51l-19 17-18-18-18 17z" fill="#d8c7ac"/>
  <path d="M109 90c-7-9-18-13-27-8-10 5-12 17-5 25 7 8 19 9 29 2z" fill="#292823"/>
  <path d="M155 90c7-9 18-13 27-8 10 5 12 17 5 25-7 8-19 9-29 2z" fill="#292823"/>
  <ellipse cx="125" cy="110" rx="7" ry="9" fill="#1d1c19"/>
  <ellipse cx="151" cy="110" rx="7" ry="9" fill="#1d1c19"/>
  <circle cx="127" cy="107" r="2.5" fill="#fff"/>
  <circle cx="153" cy="107" r="2.5" fill="#fff"/>
  <path d="M129 123c7-6 13-6 20 0-1 12-18 15-20 0z" fill="#2a2520"/>
  <path d="M102 148c14 9 31 11 51 2l23 52c-16 15-49 18-73 5z" fill="url(#cloak)" stroke="#233524" stroke-width="5"/>
  <path d="M103 156c8 8 15 12 23 13l-5 48-28-7z" fill="#b28a4c" opacity=".9"/>
  <path d="M159 156c-7 8-14 12-23 14l4 47 29-9z" fill="#b28a4c" opacity=".9"/>
  <path d="M93 178c-15 2-27 8-35 18l15 16 29-13z" fill="#294b32" stroke="#233524" stroke-width="4"/>
  <path d="M166 177c15 1 27 7 37 17l-14 18-29-12z" fill="#294b32" stroke="#233524" stroke-width="4"/>
  <rect x="108" y="203" width="22" height="48" rx="9" fill="#5c4b3a" stroke="#493d31" stroke-width="4"/>
  <rect x="147" y="202" width="22" height="49" rx="9" fill="#5c4b3a" stroke="#493d31" stroke-width="4"/>
  <path d="M105 245c-5 2-8 9-4 13 5 4 18 4 23-1 3-4-1-10-7-12z" fill="#43372d"/>
  <path d="M145 245c-5 2-8 9-4 13 5 4 18 4 23-1 3-4-1-10-7-12z" fill="#43372d"/>
  <path d="M70 196c-5-23-2-44 5-59" fill="none" stroke="#765e3f" stroke-width="7" stroke-linecap="round"/>
  <path d="M66 137c-7-7-6-18 1-23 5-4 10-3 13 2 3 6-1 13-5 18z" fill="#c29a55" stroke="#765e3f" stroke-width="3"/>
  <path d="M73 218c7 4 13 7 20 8" fill="none" stroke="#d7bd8b" stroke-width="3" opacity=".75"/>
  <circle cx="119" cy="177" r="5" fill="#d5b26b"/>
  <circle cx="157" cy="175" r="5" fill="#d5b26b"/>
</svg>
